<?xml version="1.0" standalone="no"?>
<!DOCTYPE svg PUBLIC "-//W3C//DTD SVG 20010904//EN"
 "http://www.w3.org/TR/2001/REC-SVG-20010904/DTD/svg10.dtd">
<svg version="1.0" xmlns="http://www.w3.org/2000/svg"
 width="500.000000pt" height="500.000000pt" viewBox="0 0 500.000000 500.000000"
 preserveAspectRatio="xMidYMid meet">

<g transform="translate(0.000000,500.000000) scale(0.100000,-0.100000)"
fill="#000000" stroke="none">
<path d="M2458 4153 c-85 -140 -102 -203 -96 -350 6 -122 36 -408 50 -465 6
-27 14 -38 27 -38 27 0 31 18 31 159 0 123 17 392 26 400 13 13 17 -33 24
-274 8 -275 12 -301 48 -279 13 9 21 42 34 155 53 450 53 453 -13 594 -20 43
-88 155 -94 155 -1 0 -18 -26 -37 -57z"/>
<path d="M1980 3835 c0 -103 3 -127 21 -160 27 -53 98 -227 139 -342 29 -82
36 -93 57 -93 13 0 26 6 29 14 7 19 -68 321 -110 441 -35 100 -78 188 -116
235 l-20 25 0 -120z"/>
<path d="M2989 3920 c-56 -75 -102 -182 -143 -335 -9 -33 -21 -73 -25 -90 -23
-76 -43 -171 -44 -208 -2 -36 1 -42 20 -45 22 -3 28 8 90 183 14 38 49 124 79
191 l55 120 -3 110 -3 109 -26 -35z"/>
<path d="M2732 3814 c-12 -31 -29 -86 -37 -123 -19 -92 -49 -376 -42 -395 8
-21 43 -20 52 2 3 9 20 87 36 172 28 152 38 318 21 378 -6 19 -10 14 -30 -34z"/>
<path d="M2226 3823 c-11 -69 -6 -156 15 -273 11 -63 25 -138 30 -167 17 -96
38 -125 67 -90 19 23 -23 354 -59 470 -17 53 -35 97 -39 97 -4 0 -10 -17 -14
-37z"/>
<path d="M1826 3745 c15 -65 57 -182 95 -264 122 -261 143 -301 161 -301 33 0
33 32 -1 130 -59 169 -118 281 -215 405 -41 52 -46 56 -40 30z"/>
<path d="M3142 3732 c-108 -134 -150 -208 -206 -362 -15 -41 -34 -91 -43 -111
-19 -46 -14 -73 15 -77 19 -3 30 13 88 135 37 76 80 170 96 208 30 71 80 226
75 231 -2 2 -13 -9 -25 -24z"/>
<path d="M1546 3689 c8 -22 29 -73 47 -112 32 -69 50 -113 77 -184 7 -18 15
-33 19 -33 10 0 98 -78 193 -172 84 -83 117 -104 119 -75 2 23 -3 40 -20 66
-47 69 -131 201 -131 206 0 18 -131 192 -182 243 -116 112 -144 127 -122 61z"/>
<path d="M3378 3676 c-55 -46 -91 -85 -166 -181 -4 -5 -41 -64 -81 -130 -154
-251 -154 -251 -125 -262 10 -4 49 27 122 99 59 57 126 119 150 138 32 27 48
50 66 100 13 36 42 103 64 150 42 90 58 140 44 140 -4 0 -38 -24 -74 -54z"/>
<path d="M1426 3489 c4 -8 23 -37 40 -65 18 -28 36 -63 39 -77 8 -31 24 -46
219 -201 87 -69 166 -126 176 -126 10 0 20 7 24 15 6 16 -43 69 -170 180 -105
93 -184 172 -184 184 0 13 -98 86 -129 96 -18 5 -22 4 -15 -6z"/>
<path d="M3523 3479 c-43 -21 -105 -78 -130 -119 -8 -14 -43 -48 -77 -77 -148
-126 -250 -229 -243 -246 12 -31 41 -18 143 66 56 45 135 109 177 142 50 40
81 72 91 97 8 20 31 62 51 93 20 31 35 58 33 61 -2 2 -22 -6 -45 -17z"/>
<path d="M1120 3484 c0 -3 22 -52 49 -108 l49 -102 94 -61 c51 -33 180 -120
286 -192 107 -72 200 -131 207 -131 19 0 55 49 48 66 -5 13 -261 233 -331 285
-19 13 -54 52 -78 86 -26 37 -62 73 -87 87 -54 31 -237 85 -237 70z"/>
<path d="M3810 3475 c-130 -29 -198 -65 -245 -132 -38 -51 -115 -124 -195
-185 -19 -14 -44 -34 -55 -45 -11 -10 -47 -41 -80 -68 -71 -59 -95 -84 -95
-99 0 -18 30 -56 44 -56 17 0 326 202 434 284 20 15 59 39 85 52 34 18 57 39
80 77 31 49 91 177 85 182 -2 1 -28 -4 -58 -10z"/>
<path d="M2379 3216 c-76 -16 -185 -63 -249 -108 -107 -75 -206 -219 -235
-341 -28 -118 -13 -277 27 -285 15 -3 16 6 11 101 -7 122 4 181 53 282 64 134
199 246 349 291 91 27 250 25 340 -5 243 -80 409 -314 392 -551 -3 -41 -7 -84
-9 -95 -2 -14 3 -20 17 -20 15 0 23 11 32 45 52 201 -57 451 -256 587 -131 91
-321 130 -472 99z"/>
<path d="M2384 3106 c-150 -34 -282 -141 -350 -281 -34 -71 -39 -90 -42 -171
-5 -111 16 -194 50 -194 17 0 19 4 14 28 -14 62 -18 192 -7 239 38 156 181
295 343 333 120 27 257 2 360 -66 151 -101 219 -235 204 -403 -11 -123 -11
-126 -1 -130 37 -15 68 157 46 259 -35 166 -178 322 -341 374 -75 23 -201 29
-276 12z"/>
<path d="M1175 3082 c131 -73 296 -162 474 -254 73 -37 97 -46 107 -37 8 6 14
15 14 19 0 6 -164 120 -174 120 -2 0 -57 33 -123 73 -151 94 -185 107 -276
107 l-72 0 50 -28z"/>
<path d="M3659 3083 c-109 -54 -419 -248 -425 -267 -14 -41 20 -35 131 23 60
32 173 91 250 131 77 40 147 79 155 85 8 7 33 22 55 33 l40 21 -75 1 c-63 0
-85 -5 -131 -27z"/>
<path d="M2463 2928 c-19 -18 -24 -20 -39 -8 -14 13 -21 9 -55 -30 -32 -38
-36 -47 -24 -56 21 -16 20 -22 -30 -109 -42 -74 -82 -172 -73 -180 2 -2 36 40
76 93 40 53 83 110 96 126 l24 29 168 -89 c261 -138 283 -148 291 -140 15 15
-35 85 -132 182 -94 94 -238 204 -267 204 -8 0 -23 -10 -35 -22z m213 -182
c56 -45 100 -83 98 -85 -2 -2 -27 12 -56 31 -29 20 -89 57 -133 83 -44 26 -82
49 -84 51 -2 2 2 10 8 18 16 19 29 12 167 -98z"/>
<path d="M1095 2889 c-73 -10 -150 -38 -229 -80 -68 -37 -67 -39 38 -94 72
-37 118 -47 361 -85 72 -10 192 -29 268 -42 117 -18 140 -20 147 -8 13 21 5
28 -68 50 -37 11 -76 24 -87 29 -11 5 -68 25 -127 45 -115 39 -198 74 -198 82
0 20 236 -29 403 -83 80 -26 111 -25 105 3 -4 18 -20 28 -145 88 -110 53 -196
82 -283 96 -74 11 -100 11 -185 -1z"/>
<path d="M3707 2890 c-83 -14 -158 -41 -294 -107 -129 -61 -156 -85 -117 -100
9 -3 59 8 112 25 168 54 382 96 382 75 0 -9 -50 -29 -295 -114 -93 -33 -174
-64 -179 -69 -7 -7 -6 -14 2 -22 11 -11 160 9 467 62 28 5 77 12 110 16 33 4
83 14 110 23 50 17 190 90 183 96 -2 2 -30 17 -63 35 -144 75 -284 102 -418
80z"/>
<path d="M2314 2503 l-180 -187 -35 14 c-19 8 -85 38 -147 67 -62 29 -115 53
-119 53 -6 0 -262 -205 -323 -258 -19 -17 -44 -36 -55 -41 -20 -10 -183 -62
-375 -121 -241 -74 -265 -84 -268 -108 -2 -13 3 -25 13 -28 13 -5 189 44 430
121 248 79 261 85 337 158 43 41 228 187 238 187 6 0 39 -19 73 -42 l62 -43
-107 -3 -107 -3 2 -51 2 -51 -100 -51 c-55 -28 -186 -89 -290 -135 -105 -47
-227 -102 -273 -123 -46 -21 -87 -38 -91 -38 -16 0 -50 -41 -45 -55 5 -13 124
-15 964 -15 839 0 959 2 970 15 10 12 10 18 0 30 -9 10 -39 15 -113 17 l-102
3 -3 33 c-2 24 -8 32 -22 32 -17 0 -19 5 -14 33 4 17 13 37 20 43 8 6 19 26
25 44 10 29 9 34 -7 43 -25 14 -135 12 -144 -2 -4 -8 -44 -11 -123 -9 l-117 3
160 160 161 160 -7 -86 c-5 -67 -4 -88 7 -95 7 -5 68 -38 135 -74 67 -36 131
-72 144 -80 l23 -16 -33 -58 c-19 -32 -29 -61 -24 -66 5 -4 59 -36 120 -69
l112 -61 473 2 c469 3 474 3 477 23 2 18 -17 29 -135 80 -166 71 -457 210
-496 237 -15 11 -25 23 -22 28 3 4 -2 13 -11 20 -23 20 -60 75 -43 65 7 -5 46
-33 85 -62 39 -29 76 -53 82 -53 5 0 133 -39 284 -86 380 -120 387 -122 399
-104 5 8 8 22 6 30 -2 15 -41 28 -490 172 -172 56 -159 48 -388 233 -68 55
-129 103 -136 108 -7 4 -67 -20 -148 -60 l-135 -68 -188 188 c-103 103 -192
187 -197 187 -6 -1 -91 -85 -191 -187z m244 4 c23 -25 42 -49 42 -53 0 -6 -47
-56 -273 -290 -95 -98 -99 -104 -92 -136 14 -65 9 -63 177 -59 84 1 151 1 148
-3 -3 -3 -77 -10 -164 -16 -176 -13 -170 -14 -181 52 l-7 38 -54 0 c-41 0 -54
-4 -54 -15 0 -10 11 -15 35 -15 35 0 35 0 35 -46 0 -45 0 -45 -32 -42 -25 2
-34 8 -36 26 -5 32 -22 27 -22 -7 0 -16 -3 -36 -6 -45 -5 -12 0 -16 21 -16 24
0 26 -3 23 -32 l-3 -33 -485 -2 -485 -2 55 25 c30 14 84 37 120 51 64 26 206
88 329 144 35 16 68 28 72 27 4 -2 -26 -38 -68 -81 -41 -43 -73 -80 -71 -82 2
-3 31 0 64 5 32 6 75 10 94 10 32 0 47 12 168 140 125 131 136 140 171 140 35
0 47 10 183 148 80 81 163 165 184 188 45 47 50 47 112 -19z m552 -218 c-11
-30 -20 -57 -20 -60 0 -3 59 -52 130 -109 l131 -104 -7 -67 -6 -67 63 -21 c97
-32 104 -41 34 -41 -53 0 -249 41 -283 59 -8 5 4 17 38 35 27 15 50 30 50 33
0 3 -59 65 -132 139 l-131 134 44 38 c84 74 104 90 107 87 2 -1 -6 -27 -18
-56z m-778 -426 c10 -9 18 -24 18 -35 0 -15 -8 -18 -55 -18 -60 0 -71 15 -38
52 20 22 51 23 75 1z m198 8 c0 -10 -87 -20 -107 -13 -7 2 -10 8 -7 13 7 12
114 12 114 0z"/>
<path d="M1777 2612 c-21 -75 -21 -86 -3 -101 12 -10 18 -8 30 12 14 21 14 32
3 87 l-13 64 -17 -62z"/>
<path d="M3196 2650 c-3 -8 -7 -42 -8 -75 -3 -54 -1 -60 17 -60 14 0 21 8 23
27 4 34 -24 128 -32 108z"/>
<path d="M970 2554 c-54 -15 -124 -46 -207 -93 l-42 -24 52 -29 c29 -16 86
-46 127 -66 73 -36 77 -37 190 -37 122 0 489 41 504 56 22 20 -2 25 -238 49
-59 7 -138 17 -175 24 -62 12 -64 14 -36 22 33 10 273 12 425 4 84 -4 95 -3
98 12 5 25 -17 31 -230 67 -210 35 -373 40 -468 15z"/>
<path d="M3620 2551 c-291 -51 -299 -54 -286 -87 5 -14 15 -15 59 -10 135 16
367 19 429 6 l63 -14 -37 -8 c-20 -4 -119 -16 -220 -28 -100 -11 -193 -22
-205 -25 -25 -6 -31 -23 -10 -30 27 -9 388 -49 479 -53 86 -3 103 0 163 24 76
30 198 96 202 110 4 13 -113 79 -187 104 -91 32 -301 37 -450 11z"/>
<path d="M1275 2245 c-5 -1 -55 -10 -110 -20 -210 -35 -270 -54 -345 -110
l-34 -25 82 0 c46 0 118 9 168 20 96 23 272 89 319 120 l30 20 -50 -1 c-27 0
-54 -2 -60 -4z"/>
<path d="M3650 2228 c42 -30 237 -100 337 -122 80 -18 218 -22 208 -6 -15 24
-134 82 -194 95 -136 28 -258 48 -321 52 l-65 5 35 -24z"/>
<path d="M956 1685 c-14 -37 3 -45 99 -45 70 0 96 4 105 15 10 12 10 18 0 30
-9 11 -35 15 -105 15 -73 0 -94 -3 -99 -15z"/>
<path d="M1284 1685 c-4 -8 -4 -22 0 -30 5 -13 53 -15 350 -15 335 0 345 1
351 20 3 11 3 24 0 30 -4 6 -130 10 -351 10 -297 0 -345 -2 -350 -15z"/>
<path d="M2107 1681 c-2 -10 -1 -24 2 -30 5 -8 137 -10 472 -9 l464 3 0 25 0
25 -466 3 c-451 2 -467 2 -472 -17z"/>
<path d="M3166 1685 c-3 -8 -3 -22 0 -30 5 -13 42 -15 273 -13 l266 3 0 25 0
25 -266 3 c-231 2 -268 0 -273 -13z"/>
<path d="M3834 1685 c-3 -8 -3 -22 0 -30 5 -13 23 -15 103 -13 97 3 98 3 98
28 0 25 -1 25 -98 28 -80 2 -98 0 -103 -13z"/>
<path d="M973 1573 c-7 -2 -13 -16 -13 -29 l0 -24 425 0 c371 0 426 2 431 15
4 8 1 22 -6 30 -11 13 -71 15 -419 14 -223 0 -412 -3 -418 -6z"/>
<path d="M1945 1566 c-11 -8 -16 -19 -12 -30 6 -14 47 -16 441 -16 455 0 456
0 434 43 -8 16 -39 17 -426 17 -336 0 -422 -3 -437 -14z"/>
<path d="M2947 1573 c-12 -3 -17 -12 -15 -26 l3 -22 548 -3 c482 -2 548 0 553
13 4 8 1 22 -6 30 -11 13 -84 15 -539 14 -289 -1 -534 -3 -544 -6z"/>
<path d="M920 1368 c-66 -18 -120 -88 -120 -153 0 -106 112 -189 209 -155 63
22 111 80 111 135 0 25 -1 25 -75 25 -74 0 -75 0 -75 -26 0 -24 3 -25 40 -23
51 4 56 -2 26 -34 -19 -21 -35 -27 -66 -27 -52 0 -76 13 -96 52 -29 57 6 140
65 153 31 7 101 -17 101 -34 0 -6 16 -11 35 -11 40 0 41 2 19 35 -35 53 -112
81 -174 63z"/>
<path d="M2166 1370 c-48 -15 -76 -49 -76 -91 0 -45 17 -60 106 -89 74 -25 90
-40 74 -69 -17 -33 -94 -30 -116 4 -20 31 -74 36 -74 7 0 -20 31 -52 67 -71
57 -29 163 0 184 50 25 61 -13 111 -98 130 -73 17 -89 29 -74 57 16 30 84 31
104 1 19 -27 64 -23 59 5 -5 26 -24 44 -66 61 -39 17 -48 17 -90 5z"/>
<path d="M4014 1370 c-48 -10 -90 -45 -113 -93 -26 -54 -26 -67 -1 -125 64
-149 274 -123 306 37 l7 31 -77 0 c-74 0 -76 -1 -76 -25 0 -22 4 -25 40 -25
47 0 50 -10 14 -39 -18 -14 -41 -21 -69 -21 -36 0 -48 5 -69 31 -30 36 -35 96
-10 134 31 47 113 55 150 14 17 -19 74 -27 74 -10 0 14 -40 60 -63 73 -34 18
-79 25 -113 18z"/>
<path d="M1225 1219 c-33 -83 -61 -155 -63 -160 -2 -5 10 -9 28 -9 26 0 33 6
46 35 14 35 14 35 79 35 65 0 65 0 79 -35 13 -29 20 -35 45 -35 17 0 31 1 31
3 0 3 -36 93 -82 207 -41 98 -46 105 -73 108 -30 2 -31 1 -90 -149z m119 7 c9
-27 16 -51 16 -53 0 -2 -20 -3 -45 -3 -25 0 -45 2 -45 5 0 2 6 22 14 42 8 21
17 47 20 57 9 26 20 12 40 -48z"/>
<path d="M1520 1210 l0 -160 30 0 30 0 0 94 c0 52 4 97 8 100 7 4 53 -70 102
-167 11 -23 20 -27 44 -25 l31 3 3 158 3 158 -33 -3 -33 -3 -5 -98 -5 -99 -39
74 c-60 112 -73 128 -107 128 l-29 0 0 -160z"/>
<path d="M1840 1210 l0 -160 90 0 90 0 0 30 0 30 -61 0 -60 0 3 37 3 36 50 1
c47 1 50 3 53 29 3 27 3 27 -53 27 l-56 0 3 37 3 36 55 1 c52 1 55 2 58 29 l3
27 -90 0 -91 0 0 -160z"/>
<path d="M2395 1358 c-3 -7 -4 -78 -3 -158 l3 -145 30 0 30 0 0 63 c0 34 2 62
5 63 3 0 28 1 57 2 l52 2 3 -65 3 -65 33 -3 32 -3 0 160 0 161 -35 0 -35 0 0
-65 0 -65 -55 0 -55 0 0 65 0 65 -30 0 c-17 0 -33 -6 -35 -12z"/>
<path d="M2876 1362 c-2 -4 -9 -36 -16 -72 -6 -36 -18 -97 -26 -137 -20 -100
-19 -103 16 -103 35 0 34 -4 56 123 9 54 19 95 23 92 3 -4 20 -52 36 -108 28
-94 32 -102 57 -105 32 -4 35 2 74 133 l29 100 12 -60 c7 -33 17 -86 23 -117
11 -56 12 -58 44 -58 l33 0 -23 124 c-37 198 -34 191 -79 191 l-38 0 -29 -95
c-16 -52 -33 -103 -36 -113 -5 -13 -18 16 -42 97 l-34 116 -37 0 c-21 0 -40
-3 -43 -8z"/>
<path d="M3382 1353 c-5 -10 -31 -72 -57 -138 -26 -66 -51 -124 -56 -130 -18
-19 -9 -35 22 -35 25 0 32 6 45 35 14 35 14 35 79 35 65 0 65 0 79 -35 13 -29
20 -35 45 -35 17 0 31 1 31 3 0 1 -28 72 -63 157 -57 141 -66 155 -89 158 -18
2 -30 -3 -36 -15z m59 -125 c10 -29 18 -54 19 -55 0 -2 -20 -3 -45 -3 -49 0
-52 4 -31 52 8 18 17 42 21 52 7 25 14 16 36 -46z"/>
<path d="M3620 1210 l0 -160 30 0 c29 0 29 1 32 63 l3 62 40 -62 c37 -58 43
-62 78 -63 20 0 37 2 37 5 0 3 -18 28 -40 56 -22 28 -40 54 -40 58 0 4 11 13
24 20 45 25 60 98 28 137 -27 34 -56 44 -126 44 l-66 0 0 -160z m138 98 c7 -7
12 -24 12 -38 0 -35 -17 -50 -57 -50 -33 0 -33 0 -33 50 0 50 0 50 33 50 18 0
38 -5 45 -12z"/>
</g>
</svg>
